<svg    width="100%"
      height="100%"
      viewBox="0 0 323 330.02" fill="none" xmlns="http://www.w3.org/2000/svg">
<path d="M105.59 94.9245H193.521V94.8431H241.316C261.71 94.8431 278.248 78.3168 278.248 57.937C278.248 37.6116 261.683 21.0853 241.343 21.0853H193.521V21.0038H106.73C61.3797 21.0038 23.2797 56.2817 21.1887 101.546C20.8356 109.443 21.5688 117.095 23.2525 124.422C24.0129 127.651 28.0592 128.845 30.3946 126.457C49.5668 107 76.1798 94.9245 105.59 94.9245Z" fill="#EB5F28"/>
<path d="M241.343 189.903H105.59C77.7276 189.903 52.9612 176.335 37.5637 155.494C36.4503 153.974 36.4503 151.912 37.5637 150.419C40.225 146.81 43.1579 143.445 46.3351 140.324C49.4038 137.285 52.7168 134.49 56.2471 131.966C70.151 121.926 87.2051 116.01 105.617 116.01H241.37C255.383 116.01 268.228 111.017 278.275 102.74C279.606 101.627 280.91 100.46 282.132 99.2664C282.865 98.5608 283.571 97.8281 284.25 97.0954C293.673 86.7835 299.43 73.0522 299.43 58.0185C299.43 45.834 295.655 34.5451 289.219 25.2101C287.128 22.1708 284.739 19.3485 282.132 16.7705C280.719 15.3866 279.253 14.0569 277.705 12.8086C267.766 4.80321 255.111 0 241.37 0L105.617 0C87.3952 0 70.2597 4.64039 55.2695 12.8086C50.7616 15.2509 46.4438 18.0188 42.3704 21.0853C21.4602 36.6889 6.55147 59.8909 1.71768 86.5664C0.577126 92.6993 0.00684792 99.0222 0.00684792 105.454C0.00684792 111.885 0.604282 118.099 1.71768 124.205C2.17934 126.81 2.74961 129.415 3.42852 131.966C4.16173 134.816 5.03073 137.584 5.98119 140.324C7.28468 144.015 8.75111 147.597 10.4348 151.071C11.0051 152.265 11.0051 153.621 10.4348 154.815C3.59145 168.981 -0.183245 184.856 0.00684792 201.626C0.658594 259.618 48.7249 305.94 106.757 305.94H241.343C261.194 305.94 278.71 295.954 289.192 280.73C295.628 271.395 299.403 260.079 299.403 247.922C299.403 232.888 293.646 219.157 284.223 208.845C273.605 197.203 258.316 189.903 241.343 189.903ZM21.1886 101.573C23.2796 56.3088 61.3796 21.031 106.73 21.031L193.521 21.031V21.1124H241.343C261.683 21.1124 278.248 37.6387 278.248 57.9642C278.248 78.3439 261.71 94.8702 241.316 94.8702H193.521V94.9516H105.59C76.1797 94.9516 49.5667 107.055 30.3945 126.485C28.0591 128.845 23.9857 127.679 23.2525 124.449C21.5688 117.15 20.8084 109.47 21.1886 101.573ZM240.637 284.828H193.548V284.909H106.757C61.4068 284.909 23.3068 249.631 21.2158 204.367C20.8627 196.47 21.5959 188.818 23.2796 181.491C24.04 178.262 28.0863 177.068 30.4217 179.456C49.5939 198.913 76.2069 210.989 105.617 210.989H193.548V211.07H241.37C262.009 211.07 278.737 228.085 278.275 248.817C277.814 268.98 260.841 284.855 240.664 284.855L240.637 284.828Z" fill="#fff"/>
</svg>